<?xml version="1.0" standalone="no"?><!DOCTYPE svg PUBLIC "-//W3C//DTD SVG 1.1//EN" "http://www.w3.org/Graphics/SVG/1.1/DTD/svg11.dtd"><svg t="1606202064589" class="icon" viewBox="0 0 1024 1024" version="1.1" xmlns="http://www.w3.org/2000/svg" p-id="3254" xmlns:xlink="http://www.w3.org/1999/xlink" width="200" height="200"><defs><style type="text/css"></style></defs><path d="M1024 910.222222a113.777778 113.777778 0 0 1-113.777778 113.777778H113.777778a113.777778 113.777778 0 0 1-113.777778-113.777778V113.777778a113.777778 113.777778 0 0 1 113.777778-113.777778h796.444444a113.777778 113.777778 0 0 1 113.777778 113.777778v796.444444z" fill="#3B88C3" p-id="3255"></path><path d="M244.366222 260.437333c0-44.088889 28.216889-68.778667 66.161778-68.778666 16.753778 0 44.088889 13.226667 55.580444 29.098666L645.688889 593.834667h1.763555V260.437333c0-44.088889 28.216889-68.778667 66.104889-68.778666 37.944889 0 66.161778 24.689778 66.161778 68.778666v500.935111c0 44.117333-28.216889 68.778667-66.161778 68.778667-16.725333 0-43.178667-13.226667-55.552-29.070222l-279.580444-368.668445h-1.763556v328.96c0 44.117333-28.216889 68.778667-66.161777 68.778667s-66.161778-24.661333-66.161778-68.778667V260.437333z" fill="#FFFFFF" p-id="3256"></path></svg>